<?xml version="1.0" encoding="UTF-8"?><svg id="uuid-f371330d-a059-4ba4-9ca3-df4c078f7868" xmlns="http://www.w3.org/2000/svg" xmlns:xlink="http://www.w3.org/1999/xlink" viewBox="0 0 1602.7214 974.5868"><defs><clipPath id="uuid-d852cb7e-480c-4586-b042-12dfc72fb5d2"><path d="M1008.5665,276.6207c-93.9615,31.5459-359.1603,210.8037-478.5504,317.0311,0,0-5.221,51.6434,41.988,142.0035,42.4751,81.365,92.373,115.254,92.373,115.254,155.3547-37.2543,454.1598-152.2724,533.7321-211.4013,79.5723-59.0502,138.7324-236.5468,111.3381-288.9764-12.8477-24.5636-59.1602-49.3002-114.4206-65.3719-38.009-11.0552-80.2643-18.0217-118.7451-18.0217-24.8465,0-48.1366,2.9093-67.7151,9.4826" fill="none" stroke-width="0"/></clipPath></defs><path d="M728.6622,823.2164s31.1525,30.3664-21.0413,59.6321c-52.2725,29.2813-94.3387,53.5305-80.1069,82.5602,14.2635,28.9983,320.6795-6.8249,189.6367-163.595l-88.489,21.4028h.0005Z" fill="#345589" stroke-width="0"/><path d="M408.173,554.7086c14.9553,28.6366,59.4119,9.0738,113.886-15.7258,54.5053-24.7995,60.5915,18.2419,60.5915,18.2419l69.6021-58.657c-11.7626-47.7277-32.8356-70.8917-57.9023-78.1727-79.0691-23.0068-197.5468,112.5807-186.1773,134.3137" fill="#345589" stroke-width="0"/><path d="M1008.5679,276.6128c-93.9456,31.5459-359.1603,210.8194-478.5662,317.0469,0,0-5.2051,51.6434,42.0033,141.9721,42.4751,81.3808,92.373,115.2698,92.373,115.2698,155.3547-37.2543,454.1598-152.2724,533.7321-211.3856,79.5723-59.0659,138.7324-236.5468,111.3381-288.9922-12.8165-24.5636-59.1602-49.3002-114.4206-65.3719-62.5728-18.1947-136.5623-25.287-186.4602-8.5391" fill="#f7941e" stroke-width="0"/><g clip-path="url(#uuid-d852cb7e-480c-4586-b042-12dfc72fb5d2)"><path d="M653.6472,470.8039c-3.6171-13.2411-5.2838-19.8931-8.3975-33.2442,12.7066-2.9879,19.0439-4.4661,31.7505-7.4383,3.0191,12.9108,4.6705,19.327,8.1302,32.0648-12.5962,3.4439-18.8865,5.158-31.4832,8.6177" fill="#64aab4" stroke-width="0"/><path d="M622.1957,479.3587c-3.727-13.6814-5.5041-20.5378-8.7277-34.3608,12.675-3.0036,19.0597-4.4976,31.7658-7.4383,3.1295,13.3669,4.7962,20.0031,8.4133,33.2442-12.6121,3.4282-18.8865,5.1423-31.4515,8.5548" fill="#fff" stroke-width="0"/><path d="M653.6472,470.8039c3.6171,13.2096,5.5353,19.7987,9.6083,32.8511-12.4863,3.8843-18.7137,5.8185-31.1684,9.6871-4.2146-13.4927-6.1803-20.302-9.8915-33.9833,12.5492-3.4125,18.8394-5.1266,31.4515-8.5548" fill="#64aab4" stroke-width="0"/><path d="M685.1222,462.1814c3.5067,12.7693,5.3309,19.1225,9.294,31.7188-12.5022,3.9157-18.7295,5.8814-31.1684,9.7657-4.0572-13.0524-5.9759-19.6415-9.6083-32.8668,12.5804-3.4439,18.8865-5.1738,31.4832-8.6177" fill="#fff" stroke-width="0"/><path d="M674.0041,536.0642c-4.5448-12.8637-6.6833-19.3584-10.7563-32.3951,12.4547-3.9,18.6667-5.8657,31.1684-9.7657,3.9156,12.6435,5.9759,18.9024,10.3632,31.3257-12.3448,4.356-18.4622,6.5105-30.7753,10.835" fill="#64aab4" stroke-width="0"/><path d="M643.2053,546.9071c-4.6705-13.3354-6.9035-20.0504-11.1023-33.5745,12.4388-3.8528,18.682-5.7871,31.1525-9.6714,4.073,13.0524,6.2115,19.5471,10.7409,32.3951-12.3289,4.356-18.4622,6.5262-30.7911,10.8507" fill="#fff" stroke-width="0"/><path d="M674.0041,536.0642c4.5289,12.9108,6.9352,19.327,11.8889,32.0176-12.1715,4.7649-18.2419,7.1552-30.3664,11.8887-5.1893-13.131-7.6268-19.7516-12.3131-33.0713,12.3131-4.3088,18.4464-6.4947,30.7911-10.835" fill="#64aab4" stroke-width="0"/><path d="M704.7794,525.2385c4.3403,12.4391,6.6833,18.6508,11.48,30.9011-12.1715,4.7964-18.2261,7.1552-30.3664,11.9358-4.9537-12.6907-7.3594-19.1068-11.9042-32.0176,12.3289-4.3088,18.4464-6.479,30.7911-10.8193" fill="#fff" stroke-width="0"/><path d="M698.8904,599.5585c-5.3937-12.4705-7.9886-18.7923-13.0051-31.4829,12.1403-4.7806,18.2103-7.1552,30.3664-11.9358,4.8279,12.2661,7.3283,18.352,12.5492,30.4136-11.9671,5.2367-17.9276,7.8314-29.9105,13.0052" fill="#64aab4" stroke-width="0"/><path d="M668.9751,612.5432c-5.614-12.9108-8.3346-19.4213-13.4457-32.568,12.1245-4.7334,18.2103-7.1395,30.3664-11.8887,5.0007,12.675,7.5956,18.9967,12.9893,31.4672-11.9517,5.2052-17.9588,7.8157-29.9105,12.9895" fill="#fff" stroke-width="0"/><path d="M698.8904,599.5585c5.4412,12.5019,8.2876,18.7294,14.1372,31.0112-11.7943,5.6141-17.6756,8.4447-29.4541,14.0588-6.0546-12.7064-8.995-19.1382-14.5936-32.0805,11.9517-5.1895,17.9588-7.7999,29.9105-12.9895" fill="#64aab4" stroke-width="0"/><path d="M728.8134,586.5674c5.2526,12.0616,8.0045,18.0531,13.6655,29.9261-11.7943,5.6456-17.6915,8.4604-29.4541,14.0746-5.8501-12.2818-8.6965-18.4935-14.1219-31.0112,11.9829-5.1895,17.9429-7.7842,29.9105-12.9895" fill="#fff" stroke-width="0"/><path d="M728.2298,661.0178c-6.3219-12.0931-9.341-18.1475-15.207-30.4451,11.7785-5.6298,17.6598-8.4447,29.4541-14.0746,5.6769,11.873,8.6019,17.7386,14.6877,29.4071-11.574,6.0544-17.3925,9.058-28.9353,15.1124" fill="#64aab4" stroke-width="0"/><path d="M699.3511,676.0988c-6.5734-12.4548-9.7029-18.7608-15.7728-31.4829,11.7785-5.5826,17.6444-8.429,29.4541-14.0588,5.8655,12.3133,8.8693,18.3834,15.207,30.4608-11.5899,6.0544-17.3771,9.0738-28.8883,15.081" fill="#fff" stroke-width="0"/><path d="M728.2298,661.0178c6.2902,12.0616,9.5613,18.0374,16.2762,29.8947-11.3384,6.4633-16.9994,9.7185-28.322,16.1189-6.9822-12.2346-10.332-18.4306-16.8425-30.9483,11.527-5.9915,17.2984-9.0109,28.8883-15.0653" fill="#64aab4" stroke-width="0"/><path d="M757.1637,645.8991c6.0699,11.6842,9.2311,17.4399,15.7574,28.8725-11.3696,6.479-17.0623,9.6871-28.4165,16.1504-6.7149-11.873-9.986-17.8487-16.2762-29.9104,11.5582-6.0544,17.3455-9.058,28.9353-15.1124" fill="#fff" stroke-width="0"/><path d="M761.886,720.2206c-7.155-11.6371-10.6305-17.4713-17.3771-29.2971,11.3538-6.4633,17.0469-9.6871,28.4165-16.1661,6.4788,11.4641,9.8444,17.1254,16.7321,28.3378-11.0711,6.8092-16.6534,10.2689-27.7715,17.1254" fill="#64aab4" stroke-width="0"/><path d="M734.1111,737.3208c-7.3594-11.983-10.9765-18.0374-17.9276-30.2878,11.3226-6.4161,16.9682-9.6714,28.3378-16.1031,6.7149,11.81,10.2216,17.66,17.3613,29.2971-11.1023,6.8407-16.6381,10.2689-27.7715,17.0939" fill="#fff" stroke-width="0"/><path d="M761.886,720.2206c7.1708,11.5899,10.8666,17.3298,18.4305,28.6681-10.8508,7.2338-16.2445,10.898-27.127,18.1161-7.8312-11.7314-11.6686-17.6915-19.0755-29.6902,11.134-6.8092,16.6693-10.2375,27.7715-17.0939" fill="#64aab4" stroke-width="0"/><path d="M789.6595,703.089c6.9352,11.181,10.489,16.7322,17.786,27.7088-10.8508,7.2338-16.2762,10.8193-27.127,18.0846-7.5797-11.354-11.2597-17.0781-18.4305-28.6681,11.1181-6.8407,16.7009-10.3003,27.7715-17.1254" fill="#fff" stroke-width="0"/><path d="M799.7789,776.9261c-7.9728-11.0709-11.873-16.7008-19.4686-28.039,10.8508-7.2653,16.2762-10.8665,27.1429-18.1161,7.3283,10.9923,11.0711,16.4019,18.7924,27.0955-10.5677,7.6113-15.8673,11.4484-26.4667,19.0596" fill="#64aab4" stroke-width="0"/><path d="M773.3108,796.0313c-8.2559-11.4641-12.2819-17.2983-20.1289-29.0297,10.882-7.2338,16.2762-10.8665,27.1429-18.1161,7.5797,11.354,11.4641,16.9681,19.4527,28.039-10.5993,7.6427-15.8985,11.4641-26.4667,19.1068" fill="#fff" stroke-width="0"/><path d="M799.7789,776.9261c7.9886,11.0709,12.0775,16.5592,20.4433,27.3471-10.2845,8.0201-15.4268,12.0145-25.7118,20.0504-8.6806-11.1968-12.9423-16.8266-21.1982-28.3063,10.5835-7.627,15.8832-11.4326,26.4667-19.0911" fill="#64aab4" stroke-width="0"/><path d="M826.2547,757.8539c7.7055,10.725,11.6686,15.9773,19.7517,26.4036-10.3162,8.0044-15.4426,11.9988-25.7746,20.0189-8.3817-10.7722-12.4547-16.2762-20.4433-27.3628,10.5835-7.5956,15.8985-11.4011,26.4667-19.0596" fill="#fff" stroke-width="0"/><path d="M841.7117,830.9377c-8.7752-10.5048-13.068-15.8515-21.4813-26.6237,10.332-8.0516,15.4584-12.0302,25.7905-20.0504,8.0832,10.4261,12.2661,15.5527,20.7423,25.7116-10.0014,8.3818-15.0179,12.5649-25.0509,20.9624" fill="#64aab4" stroke-width="0"/><path d="M816.6948,851.8389c-9.0737-10.8665-13.5398-16.3548-22.1892-27.5201,10.3003-8.0359,15.4268-12.0459,25.7271-20.0504,8.3975,10.8193,12.7066,16.1504,21.4813,26.6551-10.0014,8.3503-14.9867,12.5649-25.0197,20.9153" fill="#fff" stroke-width="0"/><path d="M841.7117,830.9377c8.8064,10.5048,13.3041,15.6628,22.4877,25.8846-9.7029,8.7278-14.5461,13.0996-24.2332,21.8274-9.5296-10.5834-14.1689-15.9302-23.2743-26.7809,10.0172-8.3976,15.0025-12.5806,25.0197-20.931" fill="#64aab4" stroke-width="0"/><path d="M866.7674,809.9832c8.4604,10.1431,12.8007,15.1439,21.6858,25.0039-9.7187,8.7435-14.5308,13.1153-24.249,21.8431-9.1841-10.2375-13.6972-15.3798-22.4877-25.8846,10.0172-8.4133,15.0496-12.5963,25.0509-20.9624" fill="#fff" stroke-width="0"/><path d="M1242.5423,631.4708c-108.3348-114.4049-169.9795-232.4895-201.9503-386.7592,8.9321-1.3524,13.3828-2.0758,22.3308-3.4282,32.4896,150.1809,90.5018,261.362,195.2354,373.8169-6.259,6.5419-9.3727,9.8129-15.6159,16.3705" fill="#fff" stroke-width="0"/></g><polygon points="164.8217 165.3044 215.7573 268.4968 329.6277 285.056 247.2403 365.3674 266.6774 478.813 164.8217 425.2668 62.9661 478.813 82.403 365.3674 0 285.056 113.886 268.4968 164.8217 165.3044" fill="#33b3e2" stroke-width="0"/><polygon points="1510.0024 558.3255 1538.6551 616.385 1602.7214 625.6789 1556.3619 670.859 1567.3073 734.6898 1510.0024 704.5593 1452.6981 734.6898 1463.6429 670.859 1417.2834 625.6789 1481.3661 616.385 1510.0024 558.3255" fill="#345589" stroke-width="0"/><polygon points="993.9556 0 1013.6444 39.9277 1057.708 46.3123 1025.816 77.3707 1033.3487 121.2456 993.9556 100.5347 954.5625 121.2456 962.0952 77.3707 930.2036 46.3123 974.2672 39.9277 993.9556 0" fill="#39b54a" stroke-width="0"/></svg>